<svg id="svg_symbols" aria-hidden="true">

  <symbol id="icon_close" viewBox="0 0 24 24">
    <line x1="18" y1="6" x2="6" y2="18"></line>
    <line x1="6" y1="6" x2="18" y2="18"></line>
  </symbol>

  <symbol id="icon_link" viewBox="0 0 24 24">
    <g fill="none" fill-rule="evenodd">
    <path d="M18 14v5a2 2 0 0 1-2 2H5a2 2 0 0 1-2-2V8c0-1.1.9-2 2-2h5M15 3h6v6M10 14L20.2 3.8"/>
    </g>
  </symbol>

  <symbol id="icon_load" viewBox="0 0 24 24">
      <path d="M1 12s4-8 11-8 11 8 11 8-4 8-11 8-11-8-11-8z"></path>
      <circle cx="12" cy="12" r="3"></circle>
  </symbol>

  <symbol id="icon_fav" viewBox="0 0 24 24">
      <circle cx="12" cy="12" r="8"></circle>
      <circle cx="12" cy="12" r="3"></circle>
  </symbol>
</svg>
